<?xml version="1.0" encoding="utf-8"?>
<?xml-stylesheet type="text/xsl" href="rss1.xsl"?>
<rss version="2.0" xmlns:atom="http://www.w3.org/2005/Atom" xmlns:content="http://purl.org/rss/1.0/modules/content/" xmlns:dc="http://purl.org/dc/elements/1.1/" xmlns:media="http://search.yahoo.com/mrss/">
<channel>
 <title>Getty</title>
 <link>http://www.gettyimg.com/</link>
 <atom:link href="http://www.gettyimg.com/" rel="self" type="application/rss+xml" />

 
                <item>
                <title><![CDATA[【HD Live Performances】FEED - Nicki Minaj - Dreamville Music Festival (2024) 1080i HDTV Backhaul MPA2.0 H.264-TrollHD]]></title>
                <link><![CDATA[https://sharemania.us/threads/nicki-minaj-dreamville-music-festival-2024-1080i-hdtv-backhaul-mpa2-0-h-264-trollhd.243215/]]></link>
                <description><![CDATA[<article>
<blockquote class="messageText SelectQuoteContainer ugc baseHtml">
<div style="text-align: center"><span style="font-size: 18px"><b>Nicki Minaj - Dreamville Music Festival (2024) 1080i HDTV Backhaul MPA2.0 H.264-TrollHD</b></span><br>
<br>
<img src="https://images2.imgbox.com/ce/5a/BgT3uzkX_o.jpg" class="bbCodeImage LbImage" alt="[​IMG]" data-url="https://images2.imgbox.com/ce/5a/BgT3uzkX_o.jpg" style=""> <br>
<br>
• Barbie Dangerous<br>
• FTCU<br>
• Beep Beep<br>
• Chun-Li<br>
• Red Ruby Da Sleeze (shortened)<br>
• Roman's Revenge (shortened)<br>
• Monster (Ye cover)<br>
• Super Freaky Girl (shortened)<br>
• Anaconda (shortened)<br>
• Super Bass<br>
• Moment 4 Life<br>
• Everybody<br>
<div style="text-align: center">​</div>
<div class="ToggleTriggerAnchor bbCodeSpoilerContainer">
<button type="button" class="button bbCodeSpoilerButton ToggleTrigger Tooltip JsOnly" data-target="> .SpoilerTarget"><span>Spoiler: <span class="SpoilerTitle">MediaInfo</span></span></button>
<div class="SpoilerTarget bbCodeSpoilerText">Format : Matroska<br>
Format version : Version 4<br>
File size : 2.73 GiB<br>
Duration : 30 min 37 s<br>
Overall bit rate : 12.8 Mb/s<br>
Encoded date : UTC 2024-04-21 14:48:03<br>
Writing application : mkvmerge v77.0 ('Elemental') 64-bit<br>
Writing library : libebml v1.4.4 + libmatroska v1.7.1<br>
<br>
Video<br>
ID : 1<br>
Format : AVC<br>
Format/Info : Advanced Video Codec<br>
Format profile : High@L4.2<br>
Format settings : CABAC / 2 Ref Frames<br>
Format settings, CABAC : Yes<br>
Format settings, Reference : 2 frames<br>
Format settings, GOP : M=3, N=30<br>
Codec ID : V_MPEG4/ISO/AVC<br>
Duration : 30 min 37 s<br>
Bit rate : 12.7 Mb/s<br>
Width : 1 920 pixels<br>
Height : 1 080 pixels<br>
Display aspect ratio : 16:9<br>
Frame rate mode : Constant<br>
Frame rate : 29.970 (30000/1001) FPS<br>
Standard : Component<br>
Color space : YUV<br>
Chroma subsampling : 4:2:0<br>
Bit depth : 8 bits<br>
Scan type : Progressive<br>
Bits/(Pixel*Frame) : 0.204<br>
Stream size : 2.65 GiB (97%)<br>
Writing library : x264 core 160 r3000<br>
Encoding settings : cabac=1 / ref=2 / deblock=1:0:0 / analyse=0x3:0x113 / me=hex / subme=4 / psy=1 / psy_rd=1.00:0.00 / mixed_ref=0 / me_range=16 / chroma_me=1 / trellis=1 / 8x8dct=1 / cqm=0 / deadzone=21,11 / fast_pskip=1 / chroma_qp_offset=3 / threads=16 / lookahead_threads=4 / sliced_threads=0 / nr=0 / decimate=1 / interlaced=0 / bluray_compat=0 / constrained_intra=0 / bframes=3 / b_pyramid=2 / b_adapt=1 / b_bias=0 / direct=1 / weightb=1 / open_gop=0 / weightp=1 / keyint=91 / keyint_min=9 / scenecut=0 / intra_refresh=0 / rc_lookahead=20 / rc=cbr / mbtree=1 / bitrate=12680 / ratetol=1.0 / qcomp=0.60 / qpmin=0 / qpmax=69 / qpstep=4 / vbv_maxrate=12680 / vbv_bufsize=6218 / nal_hrd=none / filler=0 / ip_ratio=1.40 / aq=1:1.00<br>
Language : English<br>
Default : Yes<br>
Forced : No<br>
Color range : Limited<br>
Color primaries : BT.709<br>
Transfer characteristics : BT.709<br>
Matrix coefficients : BT.709<br>
<br>
Audio<br>
ID : 2<br>
Format : MPEG Audio<br>
Format version : Version 1<br>
Format profile : Layer 2<br>
Codec ID : A_MPEG/L2<br>
Codec ID/Hint : MP2<br>
Duration : 30 min 37 s<br>
Bit rate mode : Constant<br>
Bit rate : 384 kb/s<br>
Channel(s) : 2 channels<br>
Sampling rate : 48.0 kHz<br>
Frame rate : 41.667 FPS (1152 SPF)<br>
Compression mode : Lossy<br>
Stream size : 84.1 MiB (3%)<br>
Language : English<br>
Default : No<br>
Forced : No</div>
</div><div style="text-align: center"><br>
<div class="bbCodeBlock bbCodeVfcHH HiddenContent">
<div class="attribution type">Hidden Content:</div>
<blockquote>You must either reply or click 'Like' to see the hidden information contained here.</blockquote>
</div></div></div>
<div class="messageTextEndMarker">&nbsp;</div>
</blockquote>
</article>]]></description>
                <author><![CDATA[melodie]]></author>
                </item>

                
                <item>
                <title><![CDATA[【HD Live Performances】FEED - Jonas Brothers - March Madness Music Festival (2024) 1080i BACKHAUL MPA2.0 H.264-TrollHD]]></title>
                <link><![CDATA[https://sharemania.us/threads/jonas-brothers-march-madness-music-festival-2024-1080i-backhaul-mpa2-0-h-264-trollhd.243216/]]></link>
                <description><![CDATA[<article>
<blockquote class="messageText SelectQuoteContainer ugc baseHtml">
Thanks for this
<div class="messageTextEndMarker">&nbsp;</div>
</blockquote>
</article>]]></description>
                <author><![CDATA[Dream66]]></author>
                </item>

                
                <item>
                <title><![CDATA[【Albums (lossless)】FLAC - Linkin Park - A Thousand Suns (Explicit) [Qobuz Hi-Res Audio + TIDAL MAX]]]></title>
                <link><![CDATA[https://sharemania.us/threads/linkin-park-a-thousand-suns-explicit-qobuz-hi-res-audio-tidal-max.243217/]]></link>
                <description><![CDATA[<article>
<blockquote class="messageText SelectQuoteContainer ugc baseHtml">
Thanks
<div class="messageTextEndMarker">&nbsp;</div>
</blockquote>
</article>]]></description>
                <author><![CDATA[Ron001]]></author>
                </item>

                </channel></rss>